<svg xmlns="http://www.w3.org/2000/svg" width="56" height="56" fill="none" viewBox="0 0 56 56"><path fill="url(#paint0_radial_1934_13403)" d="M48 0H8a8 8 0 0 0-8 8v40a8 8 0 0 0 8 8h40a8 8 0 0 0 8-8V8a8 8 0 0 0-8-8Z"/><mask id="mask0_1934_13403" width="56" height="56" x="0" y="0" maskUnits="userSpaceOnUse" style="mask-type:luminance"><path fill="#fff" d="M47.999 0H8.115a8 8 0 0 0-8 8v40a8 8 0 0 0 8 8H48a8 8 0 0 0 8-8V8a8 8 0 0 0-8-8Z"/></mask><g mask="url(#mask0_1934_13403)"><path fill="url(#paint1_linear_1934_13403)" d="m13.72 47.92 2.543-23.072 5.203-10.65 15.26-3.596L64.26 36.034l1.656 25.127-32.503 3.2L13.72 47.92Z" style="mix-blend-mode:multiply"/></g><path fill="#fff" d="M42.28 22.115c0 8.29-6.23 13.942-12.926 13.942-3.687 0-6.58-1.098-8.703-3.06v14.946h-6.954V8.921h6.954v2.265c2.1-1.962 5.016-3.06 8.703-3.06 6.697 0 12.927 5.699 12.927 13.99Zm-6.743 0c0-4.857-3.173-7.916-7.373-7.916-3.734 0-7.49 3.059-7.49 7.916 0 4.858 3.733 7.87 7.49 7.87 4.223 0 7.373-3.012 7.373-7.87Z"/><defs><radialGradient id="paint0_radial_1934_13403" cx="0" cy="0" r="1" gradientTransform="matrix(28 0 0 28.0234 28 28.023)" gradientUnits="userSpaceOnUse"><stop offset=".46" stop-color="#FF00BD"/><stop offset="1" stop-color="#9C00AD"/></radialGradient><linearGradient id="paint1_linear_1934_13403" x1="21.42" x2="63.048" y1="27.136" y2="58.652" gradientUnits="userSpaceOnUse"><stop stop-color="#590068"/><stop offset=".42" stop-color="#740083" stop-opacity=".6"/><stop offset="1" stop-color="#9F00AE" stop-opacity="0"/></linearGradient></defs></svg>